<svg xmlns="http://www.w3.org/2000/svg" viewBox="0 0 1080 1140" font-family="'Segoe UI',system-ui,sans-serif">
  <defs>
    <marker id="arr" markerWidth="8" markerHeight="8" refX="6" refY="3" orient="auto">
      <path d="M0,0 L0,6 L6,3 Z" fill="#334155"/>
    </marker>
    <marker id="arr-green" markerWidth="8" markerHeight="8" refX="6" refY="3" orient="auto">
      <path d="M0,0 L0,6 L6,3 Z" fill="#10b981"/>
    </marker>
    <marker id="arr-blue" markerWidth="8" markerHeight="8" refX="6" refY="3" orient="auto">
      <path d="M0,0 L0,6 L6,3 Z" fill="#3b82f6"/>
    </marker>
    <marker id="arr-orange" markerWidth="8" markerHeight="8" refX="6" refY="3" orient="auto">
      <path d="M0,0 L0,6 L6,3 Z" fill="#f59e0b"/>
    </marker>
    <marker id="arr-purple" markerWidth="8" markerHeight="8" refX="6" refY="3" orient="auto">
      <path d="M0,0 L0,6 L6,3 Z" fill="#8b5cf6"/>
    </marker>
  </defs>

  <!-- Background -->
  <rect width="1080" height="1140" fill="#080f1a" rx="16"/>

  <!-- ══ TITLE ══════════════════════════════════════════════════════════════ -->
  <text x="540" y="34" text-anchor="middle" fill="#f1f5f9" font-size="18" font-weight="700" letter-spacing="1">SYNAPSE — Multi-User Contextual Chatbot · Architecture v4</text>
  <text x="540" y="54" text-anchor="middle" fill="#475569" font-size="10.5">2-Stage Router · 3-Level Redis Hierarchy · Neo4j State Machine · 4-Score MongoDB · Local Embeddings · Streaming SSE</text>

  <!-- ══ USER / UI LAYER ════════════════════════════════════════════════════ -->
  <rect x="340" y="68" width="400" height="40" rx="8" fill="#101c2e" stroke="#38bdf8" stroke-width="1.5"/>
  <text x="540" y="84" text-anchor="middle" fill="#7dd3fc" font-size="11" font-weight="600">Browser UI  (ui/index.html)</text>
  <text x="540" y="100" text-anchor="middle" fill="#1e4060" font-size="9.5">SSE streaming · token-by-token display · blinking cursor · password auth</text>

  <!-- arrow UI → API -->
  <line x1="540" y1="108" x2="540" y2="126" stroke="#334155" stroke-width="1.5" marker-end="url(#arr)"/>

  <!-- ══ FASTAPI LAYER ═══════════════════════════════════════════════════════ -->
  <rect x="280" y="126" width="520" height="40" rx="8" fill="#111d2e" stroke="#3b82f6" stroke-width="1.5"/>
  <text x="540" y="143" text-anchor="middle" fill="#93c5fd" font-size="11" font-weight="600">FastAPI  (api/server.py)</text>
  <text x="540" y="158" text-anchor="middle" fill="#1e3a5f" font-size="9.5">POST /chat (SSE stream)  ·  POST /chat/sync  ·  /auth  ·  /memory  ·  /episodic  ·  /sessions</text>

  <!-- arrow API → Agent -->
  <line x1="540" y1="166" x2="540" y2="184" stroke="#334155" stroke-width="1.5" marker-end="url(#arr)"/>

  <!-- ══ AGENT ═══════════════════════════════════════════════════════════════ -->
  <rect x="160" y="184" width="760" height="68" rx="10" fill="#0e1525" stroke="#6366f1" stroke-width="2"/>
  <text x="540" y="204" text-anchor="middle" fill="#a5b4fc" font-size="12" font-weight="700">ChatAgent  (core/agent.py)</text>

  <!-- Step pills -->
  <rect x="178" y="213" width="148" height="24" rx="5" fill="#1a1f3a" stroke="#6366f1" stroke-width="1"/>
  <text x="252" y="229" text-anchor="middle" fill="#a5b4fc" font-size="9">1. build_context()</text>

  <text x="334" y="228" fill="#334155" font-size="14">→</text>

  <rect x="348" y="213" width="148" height="24" rx="5" fill="#1a1f3a" stroke="#38bdf8" stroke-width="1"/>
  <text x="422" y="229" text-anchor="middle" fill="#7dd3fc" font-size="9">2. LLM stream response</text>

  <text x="504" y="228" fill="#334155" font-size="14">→</text>

  <rect x="518" y="213" width="180" height="24" rx="5" fill="#142014" stroke="#10b981" stroke-width="1"/>
  <text x="608" y="225" text-anchor="middle" fill="#6ee7b7" font-size="9" font-weight="600">3. background_store()</text>
  <text x="608" y="235" text-anchor="middle" fill="#064e3b" font-size="7.5">asyncio.create_task — fire &amp; forget</text>

  <text x="706" y="228" fill="#334155" font-size="14">→</text>

  <rect x="720" y="213" width="186" height="24" rx="5" fill="#1a1200" stroke="#f59e0b" stroke-width="1"/>
  <text x="813" y="225" text-anchor="middle" fill="#fbbf24" font-size="9" font-weight="600">4+5. Route + Summarize</text>
  <text x="813" y="235" text-anchor="middle" fill="#78350f" font-size="7.5">parallel · background · never blocks user</text>

  <!-- ══ THREE MIDDLE BOXES ══════════════════════════════════════════════════ -->
  <!-- arrows from agent to 3 boxes -->
  <line x1="280" y1="252" x2="178" y2="284" stroke="#334155" stroke-width="1.5" marker-end="url(#arr)"/>
  <line x1="540" y1="252" x2="540" y2="284" stroke="#334155" stroke-width="1.5" marker-end="url(#arr)"/>
  <line x1="800" y1="252" x2="900" y2="284" stroke="#334155" stroke-width="1.5" marker-end="url(#arr)"/>

  <!-- ── LOCAL EMBEDDER (left) ──────────────────────────────────────────── -->
  <rect x="20" y="284" width="238" height="138" rx="8" fill="#0c1a10" stroke="#10b981" stroke-width="1.5"/>
  <text x="139" y="304" text-anchor="middle" fill="#6ee7b7" font-size="11" font-weight="700">Local Embedder</text>
  <text x="139" y="318" text-anchor="middle" fill="#065f46" font-size="9">db/embedder.py</text>

  <rect x="32" y="326" width="214" height="30" rx="4" fill="#0a2a14" stroke="#10b981" stroke-width="1"/>
  <text x="139" y="338" text-anchor="middle" fill="#6ee7b7" font-size="9" font-weight="600">all-MiniLM-L6-v2  (22MB)</text>
  <text x="139" y="350" text-anchor="middle" fill="#064e3b" font-size="8">sentence-transformers · local CPU</text>

  <rect x="32" y="362" width="100" height="22" rx="4" fill="#052e16" stroke="#6ee7b7" stroke-width="1"/>
  <text x="82" y="377" text-anchor="middle" fill="#6ee7b7" font-size="8.5">~10ms per call</text>
  <rect x="138" y="362" width="108" height="22" rx="4" fill="#052e16" stroke="#f59e0b" stroke-width="1"/>
  <text x="192" y="377" text-anchor="middle" fill="#fcd34d" font-size="8.5">$0.00 · no API</text>

  <text x="139" y="402" text-anchor="middle" fill="#374151" font-size="8">embed_text() called ONCE per turn</text>
  <text x="139" y="413" text-anchor="middle" fill="#374151" font-size="8">query_vec shared → Neo4j, MongoDB, Redis</text>

  <!-- ── MEMORY ROUTER (centre) ─────────────────────────────────────────── -->
  <rect x="278" y="284" width="524" height="138" rx="10" fill="#0c1018" stroke="#f59e0b" stroke-width="2"/>
  <text x="540" y="305" text-anchor="middle" fill="#fbbf24" font-size="13" font-weight="700">Memory Router Node  (core/router.py)</text>

  <!-- Stage 1 -->
  <rect x="292" y="314" width="230" height="72" rx="6" fill="#1a1200" stroke="#f59e0b" stroke-width="1.5"/>
  <text x="407" y="330" text-anchor="middle" fill="#fcd34d" font-size="10" font-weight="600">Stage 1 — Regex Pre-filter</text>
  <text x="407" y="344" text-anchor="middle" fill="#92400e" font-size="8.5">~0ms · FREE · no LLM call</text>
  <rect x="300" y="350" width="104" height="16" rx="3" fill="#0d1a05" stroke="#10b981" stroke-width="1"/>
  <text x="352" y="361" text-anchor="middle" fill="#6ee7b7" font-size="7.5">SKIP: "what is X", "ok", "hi"</text>
  <rect x="410" y="350" width="104" height="16" rx="3" fill="#1a0d00" stroke="#ef4444" stroke-width="1"/>
  <text x="462" y="361" text-anchor="middle" fill="#fca5a5" font-size="7.5">CALL: "I am", "I switched"</text>
  <text x="407" y="381" text-anchor="middle" fill="#78350f" font-size="8">skips 60-70% of turns entirely</text>

  <!-- Stage 2 -->
  <rect x="532" y="314" width="256" height="72" rx="6" fill="#1a1200" stroke="#fb923c" stroke-width="1.5"/>
  <text x="660" y="330" text-anchor="middle" fill="#fb923c" font-size="10" font-weight="600">Stage 2 — LLM Router  (if needed)</text>
  <text x="660" y="344" text-anchor="middle" fill="#7c2d12" font-size="8.5">gpt-4o-mini · max_tokens=400 · temp=0</text>

  <rect x="542" y="352" width="74" height="16" rx="3" fill="#1a0520" stroke="#10b981" stroke-width="1"/>
  <text x="579" y="362" text-anchor="middle" fill="#6ee7b7" font-size="7.5">User Memory</text>
  <rect x="622" y="352" width="74" height="16" rx="3" fill="#1a0520" stroke="#8b5cf6" stroke-width="1"/>
  <text x="659" y="362" text-anchor="middle" fill="#c4b5fd" font-size="7.5">Episodic</text>
  <rect x="702" y="352" width="74" height="16" rx="3" fill="#1a0520" stroke="#eab308" stroke-width="1"/>
  <text x="739" y="362" text-anchor="middle" fill="#fde047" font-size="7.5">UserDB</text>

  <text x="660" y="381" text-anchor="middle" fill="#7c2d12" font-size="8">canonical_key ensures Graphiti dedup</text>

  <!-- ── CONTEXT BUILDER (right) ────────────────────────────────────────── -->
  <rect x="822" y="284" width="238" height="138" rx="8" fill="#0a1020" stroke="#3b82f6" stroke-width="1.5"/>
  <text x="941" y="304" text-anchor="middle" fill="#93c5fd" font-size="11" font-weight="700">Context Builder</text>
  <text x="941" y="318" text-anchor="middle" fill="#1e3a5f" font-size="9">memory/context_builder.py</text>

  <rect x="834" y="326" width="214" height="20" rx="4" fill="#0a192e" stroke="#38bdf8" stroke-width="1"/>
  <text x="941" y="339" text-anchor="middle" fill="#7dd3fc" font-size="8.5">Embed ONCE → query_vec shared</text>

  <rect x="834" y="350" width="214" height="20" rx="4" fill="#0a192e" stroke="#6366f1" stroke-width="1"/>
  <text x="941" y="363" text-anchor="middle" fill="#a5b4fc" font-size="8.5">asyncio.gather() — 4 stores parallel</text>

  <rect x="834" y="374" width="214" height="20" rx="4" fill="#0a192e" stroke="#10b981" stroke-width="1"/>
  <text x="941" y="387" text-anchor="middle" fill="#6ee7b7" font-size="8.5">Neo4j cache — Redis 30s TTL</text>

  <text x="941" y="410" text-anchor="middle" fill="#374151" font-size="8">Semantic scoring at all levels</text>
  <text x="941" y="420" text-anchor="middle" fill="#374151" font-size="8">relevance → top-k selection</text>

  <!-- ══ STORAGE LAYER HEADER ════════════════════════════════════════════════ -->
  <text x="540" y="448" text-anchor="middle" fill="#334155" font-size="10" letter-spacing="2">━━━━━━━━━━━━━━━━━━━━━━━  STORAGE LAYER  ━━━━━━━━━━━━━━━━━━━━━━━</text>

  <!-- ════════ NEO4J ════════════════════════════════════════════════════════ -->
  <rect x="20" y="460" width="240" height="262" rx="8" fill="#081a10" stroke="#10b981" stroke-width="2"/>
  <text x="140" y="480" text-anchor="middle" fill="#6ee7b7" font-size="13" font-weight="700">Neo4j + Graphiti</text>
  <text x="140" y="494" text-anchor="middle" fill="#065f46" font-size="9">Semantic Fact Memory</text>

  <!-- State machine badge -->
  <rect x="32" y="502" width="216" height="18" rx="4" fill="#0d2a14" stroke="#10b981" stroke-width="1"/>
  <text x="140" y="514" text-anchor="middle" fill="#6ee7b7" font-size="8.5" font-weight="600">State Machine — Cypher + Graphiti hybrid</text>

  <!-- 4 type nodes -->
  <rect x="32" y="526" width="100" height="22" rx="4" fill="#052e16" stroke="#10b981" stroke-width="1"/>
  <text x="82" y="541" text-anchor="middle" fill="#6ee7b7" font-size="9">fact</text>
  <rect x="138" y="526" width="100" height="22" rx="4" fill="#052e16" stroke="#6366f1" stroke-width="1"/>
  <text x="188" y="541" text-anchor="middle" fill="#a5b4fc" font-size="9">preference</text>
  <rect x="32" y="554" width="100" height="22" rx="4" fill="#052e16" stroke="#f59e0b" stroke-width="1"/>
  <text x="82" y="569" text-anchor="middle" fill="#fcd34d" font-size="9">goal</text>
  <rect x="138" y="554" width="100" height="22" rx="4" fill="#052e16" stroke="#ef4444" stroke-width="1"/>
  <text x="188" y="569" text-anchor="middle" fill="#fca5a5" font-size="9">constraint</text>

  <!-- State machine transitions -->
  <rect x="32" y="584" width="216" height="70" rx="4" fill="#040f08" stroke="#064e3b" stroke-width="1"/>
  <text x="140" y="598" text-anchor="middle" fill="#10b981" font-size="8.5" font-weight="600">State Transitions</text>
  <text x="40" y="612" fill="#374151" font-size="8">NEW key   →  CREATE v1  status=active</text>
  <text x="40" y="624" fill="#374151" font-size="8">SAME hash →  SKIP  (exact duplicate)</text>
  <text x="40" y="636" fill="#374151" font-size="8">INACTIVE  →  REACTIVATE  version++</text>
  <text x="40" y="648" fill="#374151" font-size="8">NEW hash  →  DEACTIVATE old → CREATE</text>

  <!-- Cache badge -->
  <rect x="32" y="662" width="216" height="18" rx="4" fill="#1a1200" stroke="#f59e0b" stroke-width="1"/>
  <text x="140" y="673" text-anchor="middle" fill="#fbbf24" font-size="8">⚡ Redis cache  neo4j_cache:{user_id}  TTL=30s</text>

  <text x="140" y="698" text-anchor="middle" fill="#374151" font-size="8">Full history preserved — versions never</text>
  <text x="140" y="710" text-anchor="middle" fill="#374151" font-size="8">deleted · Cypher state owns truth</text>

  <!-- ════════ MONGODB ═══════════════════════════════════════════════════════ -->
  <rect x="280" y="460" width="240" height="262" rx="8" fill="#0e0820" stroke="#8b5cf6" stroke-width="2"/>
  <text x="400" y="480" text-anchor="middle" fill="#c4b5fd" font-size="13" font-weight="700">MongoDB</text>
  <text x="400" y="494" text-anchor="middle" fill="#4c1d95" font-size="9">Episodic Memory  (narrative events)</text>

  <!-- Schema box -->
  <rect x="292" y="502" width="216" height="78" rx="4" fill="#1e1035" stroke="#8b5cf6" stroke-width="1"/>
  <text x="400" y="516" text-anchor="middle" fill="#c4b5fd" font-size="8.5" font-weight="600">Episode Document</text>
  <text x="300" y="530" fill="#6b21a8" font-size="7.5">title · content · outcome (resolved|ongoing)</text>
  <text x="300" y="543" fill="#6b21a8" font-size="7.5">importance_score (1-10) · emotional_intensity</text>
  <text x="300" y="556" fill="#6b21a8" font-size="7.5">topic_cluster · access_count · content_hash</text>
  <text x="300" y="569" fill="#6b21a8" font-size="7.5">superseded · is_summary · tags[]</text>

  <!-- 4-component scoring -->
  <rect x="292" y="586" width="216" height="70" rx="4" fill="#0d0520" stroke="#6366f1" stroke-width="1"/>
  <text x="400" y="599" text-anchor="middle" fill="#a5b4fc" font-size="8.5" font-weight="600">4-Component Retrieval Score</text>
  <rect x="298" y="605" width="46" height="13" rx="2" fill="#1a0a2e" stroke="#a5b4fc" stroke-width="1"/>
  <text x="321" y="615" text-anchor="middle" fill="#a5b4fc" font-size="7">50% relevance</text>
  <rect x="350" y="605" width="46" height="13" rx="2" fill="#1a0a2e" stroke="#6ee7b7" stroke-width="1"/>
  <text x="373" y="615" text-anchor="middle" fill="#6ee7b7" font-size="7">20% recency</text>
  <rect x="402" y="605" width="50" height="13" rx="2" fill="#1a0a2e" stroke="#fcd34d" stroke-width="1"/>
  <text x="427" y="615" text-anchor="middle" fill="#fcd34d" font-size="7">20% importance</text>
  <rect x="458" y="605" width="42" height="13" rx="2" fill="#1a0a2e" stroke="#fb923c" stroke-width="1"/>
  <text x="479" y="615" text-anchor="middle" fill="#fb923c" font-size="7">10% access</text>
  <text x="400" y="633" text-anchor="middle" fill="#374151" font-size="7.5">recency = exp(-days/30)  ·  access = log(1+n)</text>
  <text x="400" y="645" text-anchor="middle" fill="#374151" font-size="7.5">importance normalised [0,1]  from 1-10 score</text>

  <!-- Dedup + consolidation -->
  <text x="400" y="668" text-anchor="middle" fill="#6b21a8" font-size="8">Dedup: MD5(title+entities) within 24h → SKIP</text>
  <text x="400" y="680" text-anchor="middle" fill="#6b21a8" font-size="8">Consolidation: old low-value → cluster summary</text>
  <text x="400" y="698" text-anchor="middle" fill="#374151" font-size="8">POST /episodic/consolidate  ·  dry_run=true</text>
  <text x="400" y="710" text-anchor="middle" fill="#374151" font-size="8">sources marked superseded (never deleted)</text>

  <!-- ════════ REDIS ═════════════════════════════════════════════════════════ -->
  <rect x="540" y="460" width="260" height="262" rx="8" fill="#1a0f00" stroke="#f97316" stroke-width="2"/>
  <text x="670" y="480" text-anchor="middle" fill="#fb923c" font-size="13" font-weight="700">Redis</text>
  <text x="670" y="494" text-anchor="middle" fill="#7c2d12" font-size="9">3-Level Hierarchical Summaries</text>

  <!-- Key schema -->
  <rect x="552" y="502" width="236" height="56" rx="4" fill="#2c1500" stroke="#f97316" stroke-width="1"/>
  <text x="670" y="515" text-anchor="middle" fill="#fb923c" font-size="8.5" font-weight="600">Key Schema</text>
  <text x="560" y="528" fill="#7c2d12" font-size="7.5">summary:{session}   Sorted Set   full docs</text>
  <text x="560" y="540" fill="#7c2d12" font-size="7.5">emb:{session}       Hash         embeddings only</text>
  <text x="560" y="552" fill="#7c2d12" font-size="7.5">handoff:{user_id}   String       cross-session</text>

  <!-- 3 levels -->
  <rect x="552" y="564" width="72" height="50" rx="4" fill="#1a0e00" stroke="#f59e0b" stroke-width="1.5"/>
  <text x="588" y="578" text-anchor="middle" fill="#fcd34d" font-size="8.5" font-weight="600">L0 Batch</text>
  <text x="588" y="590" text-anchor="middle" fill="#92400e" font-size="7.5">3 turns</text>
  <text x="588" y="602" text-anchor="middle" fill="#92400e" font-size="7.5">TTL 7d</text>
  <text x="588" y="610" text-anchor="middle" fill="#92400e" font-size="7">every 3T</text>

  <rect x="630" y="564" width="72" height="50" rx="4" fill="#1a0e00" stroke="#ef4444" stroke-width="1.5"/>
  <text x="666" y="578" text-anchor="middle" fill="#fca5a5" font-size="8.5" font-weight="600">L1 Window</text>
  <text x="666" y="590" text-anchor="middle" fill="#7f1d1d" font-size="7.5">9 turns</text>
  <text x="666" y="602" text-anchor="middle" fill="#7f1d1d" font-size="7.5">TTL 30d</text>
  <text x="666" y="610" text-anchor="middle" fill="#7f1d1d" font-size="7">3× L0</text>

  <rect x="708" y="564" width="72" height="50" rx="4" fill="#1a0e00" stroke="#38bdf8" stroke-width="1.5"/>
  <text x="744" y="578" text-anchor="middle" fill="#7dd3fc" font-size="8.5" font-weight="600">L2 Arc</text>
  <text x="744" y="590" text-anchor="middle" fill="#0e4a6a" font-size="7.5">27 turns</text>
  <text x="744" y="602" text-anchor="middle" fill="#0e4a6a" font-size="7.5">TTL 90d</text>
  <text x="744" y="610" text-anchor="middle" fill="#0e4a6a" font-size="7">3× L1</text>

  <!-- Handoff -->
  <rect x="552" y="620" width="236" height="22" rx="4" fill="#0f1a10" stroke="#10b981" stroke-width="1.5"/>
  <text x="670" y="635" text-anchor="middle" fill="#6ee7b7" font-size="9" font-weight="600">Handoff  handoff:{user_id}  TTL=180d</text>

  <!-- Semantic search box -->
  <rect x="552" y="648" width="236" height="46" rx="4" fill="#100a20" stroke="#8b5cf6" stroke-width="1"/>
  <text x="670" y="661" text-anchor="middle" fill="#c4b5fd" font-size="8.5" font-weight="600">Semantic Search — Embedding Hash</text>
  <text x="560" y="674" fill="#4c1d95" font-size="7.5">HGETALL emb:{session} → all vecs (1 call)</text>
  <text x="560" y="685" fill="#4c1d95" font-size="7.5">cosine score all → fetch only top-k full docs</text>

  <text x="670" y="706" text-anchor="middle" fill="#374151" font-size="7.5">L2 boost +0.15 · L1 boost +0.08</text>
  <text x="670" y="717" text-anchor="middle" fill="#374151" font-size="7.5">handoff always first · max 8 results</text>

  <!-- ════════ SQLITE ════════════════════════════════════════════════════════ -->
  <rect x="820" y="460" width="240" height="262" rx="8" fill="#13110a" stroke="#eab308" stroke-width="2"/>
  <text x="940" y="480" text-anchor="middle" fill="#fde047" font-size="13" font-weight="700">SQLite</text>
  <text x="940" y="494" text-anchor="middle" fill="#713f12" font-size="9">Operational Store + Raw Turns</text>

  <!-- Tables -->
  <rect x="832" y="502" width="216" height="20" rx="4" fill="#2a1e00" stroke="#eab308" stroke-width="1"/>
  <text x="940" y="516" text-anchor="middle" fill="#fde047" font-size="9">users  (id · email · password_hash)</text>
  <rect x="832" y="526" width="216" height="20" rx="4" fill="#2a1e00" stroke="#eab308" stroke-width="1"/>
  <text x="940" y="540" text-anchor="middle" fill="#fde047" font-size="9">sessions  (id · user · last_summarized_turn)</text>
  <rect x="832" y="550" width="216" height="20" rx="4" fill="#2a1e00" stroke="#eab308" stroke-width="1"/>
  <text x="940" y="564" text-anchor="middle" fill="#fde047" font-size="9">turn_logs  (turn_number · is_summarized)</text>

  <!-- Blind-spot fix box -->
  <rect x="832" y="578" width="216" height="54" rx="4" fill="#1a0d00" stroke="#f97316" stroke-width="1.5"/>
  <text x="940" y="592" text-anchor="middle" fill="#fb923c" font-size="8.5" font-weight="600">Blind-Spot Fix</text>
  <text x="840" y="606" fill="#7c2d12" font-size="8">OLD: last N turns → gap after summary</text>
  <text x="840" y="619" fill="#6ee7b7" font-size="8">NEW: get_turns_from_last_summary()</text>
  <text x="840" y="629" fill="#7c2d12" font-size="8">returns ALL turns after last_summarized_turn</text>

  <text x="940" y="652" text-anchor="middle" fill="#374151" font-size="8">Ground truth — permanent archive</text>
  <text x="940" y="664" text-anchor="middle" fill="#374151" font-size="8">source for all summarization runs</text>
  <text x="940" y="676" text-anchor="middle" fill="#374151" font-size="8">PBKDF2-SHA256 password hashing</text>
  <text x="940" y="688" text-anchor="middle" fill="#374151" font-size="8">idx on session_id + is_summarized</text>
  <text x="940" y="706" text-anchor="middle" fill="#713f12" font-size="8">Never deleted · archive after 1yr</text>
  <text x="940" y="718" text-anchor="middle" fill="#713f12" font-size="8">100k turns ≈ 50MB</text>

  <!-- ══ SUMMARIZATION TIMELINE ══════════════════════════════════════════════ -->
  <rect x="20" y="742" width="1040" height="168" rx="8" fill="#0c1018" stroke="#f59e0b" stroke-width="1.5"/>
  <text x="540" y="762" text-anchor="middle" fill="#fcd34d" font-size="12" font-weight="700">Hierarchical Summarization Timeline  (L0 → L1 → L2 → Handoff)</text>

  <!-- Turn boxes -->
  <!-- T1-T3 amber -->
  <rect x="36"  y="774" width="24" height="16" rx="3" fill="#1a1000" stroke="#f59e0b" stroke-width="1"/>
  <text x="48"  y="786" text-anchor="middle" fill="#fbbf24" font-size="7.5">T1</text>
  <rect x="62"  y="774" width="24" height="16" rx="3" fill="#1a1000" stroke="#f59e0b" stroke-width="1"/>
  <text x="74"  y="786" text-anchor="middle" fill="#fbbf24" font-size="7.5">T2</text>
  <rect x="88"  y="774" width="24" height="16" rx="3" fill="#1a1000" stroke="#f59e0b" stroke-width="1"/>
  <text x="100" y="786" text-anchor="middle" fill="#fbbf24" font-size="7.5">T3</text>
  <!-- T4-T6 green -->
  <rect x="118" y="774" width="24" height="16" rx="3" fill="#051a08" stroke="#10b981" stroke-width="1"/>
  <text x="130" y="786" text-anchor="middle" fill="#6ee7b7" font-size="7.5">T4</text>
  <rect x="144" y="774" width="24" height="16" rx="3" fill="#051a08" stroke="#10b981" stroke-width="1"/>
  <text x="156" y="786" text-anchor="middle" fill="#6ee7b7" font-size="7.5">T5</text>
  <rect x="170" y="774" width="24" height="16" rx="3" fill="#051a08" stroke="#10b981" stroke-width="1"/>
  <text x="182" y="786" text-anchor="middle" fill="#6ee7b7" font-size="7.5">T6</text>
  <!-- T7-T9 violet -->
  <rect x="200" y="774" width="24" height="16" rx="3" fill="#120820" stroke="#8b5cf6" stroke-width="1"/>
  <text x="212" y="786" text-anchor="middle" fill="#c4b5fd" font-size="7.5">T7</text>
  <rect x="226" y="774" width="24" height="16" rx="3" fill="#120820" stroke="#8b5cf6" stroke-width="1"/>
  <text x="238" y="786" text-anchor="middle" fill="#c4b5fd" font-size="7.5">T8</text>
  <rect x="252" y="774" width="24" height="16" rx="3" fill="#120820" stroke="#8b5cf6" stroke-width="1"/>
  <text x="264" y="786" text-anchor="middle" fill="#c4b5fd" font-size="7.5">T9</text>
  <!-- T10-T12 red -->
  <rect x="282" y="774" width="24" height="16" rx="3" fill="#200606" stroke="#ef4444" stroke-width="1"/>
  <text x="294" y="786" text-anchor="middle" fill="#fca5a5" font-size="7">T10</text>
  <rect x="308" y="774" width="24" height="16" rx="3" fill="#200606" stroke="#ef4444" stroke-width="1"/>
  <text x="320" y="786" text-anchor="middle" fill="#fca5a5" font-size="7">T11</text>
  <rect x="334" y="774" width="24" height="16" rx="3" fill="#200606" stroke="#ef4444" stroke-width="1"/>
  <text x="346" y="786" text-anchor="middle" fill="#fca5a5" font-size="7">T12</text>
  <!-- T13-T18 cyan -->
  <rect x="364" y="774" width="24" height="16" rx="3" fill="#051018" stroke="#38bdf8" stroke-width="1"/>
  <text x="376" y="786" text-anchor="middle" fill="#7dd3fc" font-size="7">T13</text>
  <rect x="390" y="774" width="24" height="16" rx="3" fill="#051018" stroke="#38bdf8" stroke-width="1"/>
  <text x="402" y="786" text-anchor="middle" fill="#7dd3fc" font-size="7">T14</text>
  <rect x="416" y="774" width="24" height="16" rx="3" fill="#051018" stroke="#38bdf8" stroke-width="1"/>
  <text x="428" y="786" text-anchor="middle" fill="#7dd3fc" font-size="7">T15</text>
  <rect x="442" y="774" width="24" height="16" rx="3" fill="#051018" stroke="#38bdf8" stroke-width="1"/>
  <text x="454" y="786" text-anchor="middle" fill="#7dd3fc" font-size="7">T16</text>
  <rect x="468" y="774" width="24" height="16" rx="3" fill="#051018" stroke="#38bdf8" stroke-width="1"/>
  <text x="480" y="786" text-anchor="middle" fill="#7dd3fc" font-size="7">T17</text>
  <rect x="494" y="774" width="24" height="16" rx="3" fill="#051018" stroke="#38bdf8" stroke-width="1"/>
  <text x="506" y="786" text-anchor="middle" fill="#7dd3fc" font-size="7">T18</text>
  <!-- T19-T27 orange (9 more for full L2) -->
  <rect x="524" y="774" width="24" height="16" rx="3" fill="#150800" stroke="#fb923c" stroke-width="1"/>
  <text x="536" y="786" text-anchor="middle" fill="#fb923c" font-size="7">T19</text>
  <text x="556" y="784" fill="#334155" font-size="10">···</text>
  <rect x="568" y="774" width="24" height="16" rx="3" fill="#150800" stroke="#fb923c" stroke-width="1"/>
  <text x="580" y="786" text-anchor="middle" fill="#fb923c" font-size="7">T27</text>

  <!-- L0 annotations -->
  <text x="74"  y="800" text-anchor="middle" fill="#f59e0b" font-size="7.5">L0·S1</text>
  <text x="74"  y="810" text-anchor="middle" fill="#78350f" font-size="7">at T6</text>
  <text x="156" y="800" text-anchor="middle" fill="#10b981" font-size="7.5">L0·S2</text>
  <text x="156" y="810" text-anchor="middle" fill="#065f46" font-size="7">at T9</text>
  <text x="238" y="800" text-anchor="middle" fill="#8b5cf6" font-size="7.5">L0·S3</text>
  <text x="238" y="810" text-anchor="middle" fill="#4c1d95" font-size="7">at T12</text>
  <text x="320" y="800" text-anchor="middle" fill="#ef4444" font-size="7.5">L0·S4</text>
  <text x="320" y="810" text-anchor="middle" fill="#7f1d1d" font-size="7">at T15</text>
  <text x="402" y="800" text-anchor="middle" fill="#38bdf8" font-size="7.5">L0·S5</text>
  <text x="402" y="810" text-anchor="middle" fill="#0e4a6a" font-size="7">at T18</text>
  <text x="480" y="800" text-anchor="middle" fill="#38bdf8" font-size="7.5">L0·S6</text>
  <text x="554" y="800" text-anchor="middle" fill="#fb923c" font-size="7.5">···</text>
  <text x="554" y="810" text-anchor="middle" fill="#7c2d12" font-size="7">L0·S9</text>

  <!-- L1 merge arrows -->
  <line x1="74" y1="813" x2="156" y2="813" stroke="#f59e0b" stroke-width="1" stroke-dasharray="3,2"/>
  <text x="115" y="826" text-anchor="middle" fill="#f59e0b" font-size="8" font-weight="600">L1·M1  (T1-T9)  at T12</text>
  <line x1="238" y1="813" x2="402" y2="813" stroke="#ef4444" stroke-width="1" stroke-dasharray="3,2"/>
  <text x="320" y="826" text-anchor="middle" fill="#ef4444" font-size="8" font-weight="600">L1·M2  (T10-T18)  at T21</text>
  <line x1="402" y1="813" x2="554" y2="813" stroke="#fb923c" stroke-width="1" stroke-dasharray="3,2"/>
  <text x="480" y="826" text-anchor="middle" fill="#fb923c" font-size="8" font-weight="600">L1·M3  (T19-T27) at T30</text>

  <!-- L2 arc -->
  <line x1="115" y1="829" x2="320" y2="837" stroke="#38bdf8" stroke-width="1.2" stroke-dasharray="4,2"/>
  <line x1="320" y1="837" x2="480" y2="837" stroke="#38bdf8" stroke-width="1.2" stroke-dasharray="4,2"/>
  <text x="300" y="850" text-anchor="middle" fill="#38bdf8" font-size="8.5" font-weight="600">L2·A1  Arc (T1-T27)  at T30  — 3 L1s compressed to narrative arc</text>

  <!-- Handoff -->
  <line x1="300" y1="852" x2="300" y2="862" stroke="#10b981" stroke-width="1.5"/>
  <rect x="220" y="862" width="160" height="18" rx="5" fill="#081a10" stroke="#10b981" stroke-width="1.5"/>
  <text x="300" y="874" text-anchor="middle" fill="#6ee7b7" font-size="8.5" font-weight="600">Handoff written at every L2</text>

  <!-- Context window box at right of timeline -->
  <rect x="630" y="762" width="412" height="140" rx="6" fill="#0a1018" stroke="#3b82f6" stroke-width="1.5"/>
  <text x="836" y="780" text-anchor="middle" fill="#93c5fd" font-size="10" font-weight="600">Context Window — LLM sees (ordered top→bottom)</text>
  <text x="638" y="796" fill="#10b981" font-size="8.5">[99] Handoff  "Last time we talked, you were building Synapse..."</text>
  <text x="638" y="810" fill="#38bdf8" font-size="8.5">[L2] Arc      "Vikas built full 4-store memory pipeline, debugged..."</text>
  <text x="638" y="824" fill="#fca5a5" font-size="8.5">[L1] Window  "Evaluated Redis strategies, fixed blind-spot bug..."</text>
  <text x="638" y="838" fill="#fcd34d" font-size="8.5">[L0] Batch   "Last 3 turns about latency optimisations..."</text>
  <text x="638" y="852" fill="#a5b4fc" font-size="8.5">[Neo4j] Facts  backend engineer · Bangalore · building Synapse</text>
  <text x="638" y="866" fill="#c4b5fd" font-size="8.5">[MongoDB] Episodes  top-5 by 4-component score</text>
  <text x="638" y="880" fill="#fde047" font-size="8.5">[SQLite] Raw turns  all turns since last_summarized_turn</text>
  <text x="638" y="894" fill="#334155" font-size="7.5">  ↑ everything assembled from get_turns_from_last_summary() — no blind spots</text>

  <!-- ══ LATENCY + COST CALLOUT ══════════════════════════════════════════════ -->
  <rect x="20" y="930" width="500" height="88" rx="8" fill="#0c1018" stroke="#10b981" stroke-width="1.5"/>
  <text x="270" y="949" text-anchor="middle" fill="#6ee7b7" font-size="11" font-weight="700">⚡  Latency — Before vs After</text>
  <rect x="32" y="957" width="230" height="52" rx="4" fill="#1a0505" stroke="#ef4444" stroke-width="1"/>
  <text x="147" y="969" text-anchor="middle" fill="#fca5a5" font-size="8.5" font-weight="600">BEFORE</text>
  <text x="40" y="981" fill="#7f1d1d" font-size="8">embed (OpenRouter API)   ~300ms</text>
  <text x="40" y="992" fill="#7f1d1d" font-size="8">Neo4j Graphiti           ~500ms</text>
  <text x="40" y="1003" fill="#7f1d1d" font-size="8">Router LLM (always)      ~800ms</text>

  <rect x="278" y="957" width="230" height="52" rx="4" fill="#0a1a0a" stroke="#10b981" stroke-width="1"/>
  <text x="393" y="969" text-anchor="middle" fill="#6ee7b7" font-size="8.5" font-weight="600">AFTER</text>
  <text x="286" y="981" fill="#065f46" font-size="8">embed (local CPU)        ~10ms  ✓</text>
  <text x="286" y="992" fill="#065f46" font-size="8">Neo4j (Redis cache hit)  ~5ms   ✓</text>
  <text x="286" y="1003" fill="#065f46" font-size="8">Router (pre-filter 65%)  ~0ms   ✓</text>

  <!-- Cost callout -->
  <rect x="540" y="930" width="520" height="88" rx="8" fill="#0c1018" stroke="#f59e0b" stroke-width="1.5"/>
  <text x="800" y="949" text-anchor="middle" fill="#fcd34d" font-size="11" font-weight="700">💰  Cost — Per 100 Messages</text>
  <rect x="552" y="957" width="230" height="52" rx="4" fill="#1a0505" stroke="#ef4444" stroke-width="1"/>
  <text x="667" y="969" text-anchor="middle" fill="#fca5a5" font-size="8.5" font-weight="600">BEFORE</text>
  <text x="560" y="981" fill="#7f1d1d" font-size="8">100 embed API calls</text>
  <text x="560" y="992" fill="#7f1d1d" font-size="8">100 router LLM calls</text>
  <text x="560" y="1003" fill="#7f1d1d" font-size="8">= ~300 API calls total</text>

  <rect x="798" y="957" width="250" height="52" rx="4" fill="#0a1a0a" stroke="#10b981" stroke-width="1"/>
  <text x="923" y="969" text-anchor="middle" fill="#6ee7b7" font-size="8.5" font-weight="600">AFTER</text>
  <text x="806" y="981" fill="#065f46" font-size="8">0 embed API calls  (local, free)</text>
  <text x="806" y="992" fill="#065f46" font-size="8">~35 router LLM calls  (pre-filter)</text>
  <text x="806" y="1003" fill="#065f46" font-size="8">= ~135 API calls  (-55% cost)</text>

  <!-- ══ BOTTOM LABEL ═════════════════════════════════════════════════════════ -->
  <text x="540" y="1128" text-anchor="middle" fill="#1e293b" font-size="9">Synapse v4.0  —  user sees first token in ~500ms  ·  background storage never blocks  ·  full history never lost</text>
</svg>
